<svg xmlns="http://www.w3.org/2000/svg" version="1.1" xmlns:xlink="http://www.w3.org/1999/xlink" xmlns:svgjs="http://svgjs.dev/svgjs" width="1000" height="1000" viewBox="0 0 1000 1000"><rect width="1000" height="1000" fill="#ffffff"></rect><g transform="matrix(0.7,0,0,0.7,149.5759197990373,394.0869311681554)"><svg viewBox="0 0 396 120" data-background-color="#ffffff" preserveAspectRatio="xMidYMid meet" height="303" width="1000" xmlns="http://www.w3.org/2000/svg" xmlns:xlink="http://www.w3.org/1999/xlink"><defs></defs><g id="tight-bounds" transform="matrix(1,0,0,1,0.2400917720267728,-0.07728763662257165)"><svg viewBox="0 0 395.5199999999999 120.15474452067411" height="120.15474452067411" width="395.5199999999999"><g><svg viewBox="0 0 395.5199999999999 120.15474452067411" height="120.15474452067411" width="395.5199999999999"><g><svg viewBox="0 0 395.5199999999999 120.15474452067411" height="120.15474452067411" width="395.5199999999999"><g><svg viewBox="0 0 395.5199999999999 120.15474452067411" height="120.15474452067411" width="395.5199999999999"><g><svg viewBox="0 0 395.5199999999999 120.15474452067411" height="120.15474452067411" width="395.5199999999999"><g transform="matrix(1,0,0,1,0,0)"><svg width="395.5199999999999" viewBox="-5.619420528411865 -12.151920318603516 171.25372314453125 52.02507400512695" height="120.15474452067411" data-palette-color="#e65728"><path d="M32.766 29.768l-0.013 0.125c-0.085 0.188-0.211 0.289-0.377 0.302-0.161 0.015-0.266 0.169-0.317 0.461v0c-0.199-0.061-0.406-0.04-0.62 0.061-0.22 0.098-0.424 0.105-0.612 0.02v0c-0.122-0.055-0.193-0.156-0.214-0.305v0c-0.116 0.145-0.258 0.224-0.424 0.237-0.161 0.015-0.325 0.015-0.493-0.003-0.159-0.02-0.328-0.027-0.506-0.019-0.173 0.01-0.315 0.074-0.427 0.191v0l-0.182-0.082c-0.286-0.129-0.559-0.106-0.821 0.069-0.265 0.166-0.504 0.201-0.716 0.105v0c-0.073-0.033-0.116-0.067-0.13-0.102v0c-0.126-0.028-0.206 0.028-0.239 0.167-0.036 0.145-0.113 0.219-0.233 0.224v0l-0.182-0.082c-0.62-0.279-1.308-0.432-2.064-0.458-0.762-0.029-1.547-0.024-2.354 0.014-0.798 0.035-1.605 0.049-2.419 0.04-0.815-0.009-1.588-0.119-2.319-0.331v0c-0.212 0.08-0.435 0.115-0.672 0.103-0.239-0.005-0.488-0.037-0.746-0.095-0.265-0.061-0.522-0.115-0.772-0.161-0.252-0.041-0.493-0.025-0.723 0.047v0c-0.618-0.22-1.261-0.382-1.931-0.486-0.67-0.104-1.332-0.209-1.987-0.313-0.652-0.111-1.307-0.248-1.963-0.413-0.654-0.17-1.279-0.415-1.874-0.734v0c-0.257 0.052-0.518 0.07-0.781 0.054-0.263-0.016-0.524 0.002-0.781 0.054v0c-0.91-0.578-1.831-1.121-2.765-1.629-0.928-0.505-1.798-1.098-2.61-1.779v0c0.033-0.073 0.03-0.133-0.007-0.178-0.038-0.046-0.084-0.089-0.14-0.129-0.049-0.037-0.091-0.081-0.126-0.134-0.032-0.058-0.002-0.125 0.09-0.2v0c-0.246-0.023-0.454-0.073-0.623-0.15v0c-0.237-0.107-0.441-0.272-0.611-0.494-0.173-0.217-0.351-0.454-0.535-0.712-0.192-0.255-0.389-0.508-0.59-0.76-0.204-0.245-0.461-0.438-0.771-0.577v0c-0.101-0.279-0.185-0.548-0.252-0.805-0.073-0.26-0.082-0.549-0.026-0.867v0c-0.08-0.065-0.181-0.111-0.301-0.135-0.12-0.025-0.214-0.052-0.281-0.083v0c-0.146-0.066-0.197-0.147-0.153-0.244v0c-0.337-0.583-0.521-1.123-0.553-1.621-0.035-0.506-0.066-1.079-0.092-1.719v0c0.01-0.2-0.017-0.377-0.08-0.53-0.06-0.159-0.08-0.318-0.06-0.476v0c0.01-0.281 0.062-0.561 0.159-0.839 0.093-0.272 0.19-0.536 0.29-0.79 0.1-0.255 0.176-0.52 0.227-0.797 0.058-0.274 0.049-0.555-0.025-0.845v0c0.457-0.884 0.965-1.744 1.525-2.582 0.566-0.835 1.171-1.651 1.816-2.45v0c0.278-0.357 0.561-0.702 0.849-1.033 0.294-0.328 0.58-0.671 0.858-1.028v0c0.084-0.138 0.169-0.22 0.254-0.248 0.088-0.033 0.162-0.051 0.222-0.053v0l0.195-0.044c0.064-0.029 0.129-0.084 0.195-0.165v0l0.838-1.081c0.544-0.705 1.137-1.356 1.778-1.952 0.644-0.602 1.366-1.092 2.165-1.47v0c0.317-0.574 0.708-1.078 1.174-1.512 0.466-0.434 0.958-0.844 1.476-1.232 0.516-0.382 1.029-0.758 1.539-1.128 0.51-0.37 0.979-0.802 1.407-1.296v0l-0.004-0.09c0.044-0.097 0.12-0.129 0.229-0.094 0.115 0.037 0.197 0.067 0.245 0.089v0c0.194-0.366 0.429-0.651 0.704-0.857 0.281-0.202 0.565-0.385 0.851-0.549 0.283-0.158 0.565-0.338 0.846-0.54 0.275-0.205 0.51-0.491 0.704-0.857v0c0.576-0.062 1.11-0.217 1.601-0.463 0.5-0.25 0.992-0.515 1.476-0.794 0.487-0.285 0.985-0.547 1.495-0.785 0.512-0.245 1.059-0.379 1.64-0.402v0c0.187-0.091 0.315-0.278 0.384-0.562v0c0.982-0.216 1.964-0.359 2.946-0.428 0.979-0.078 1.94-0.249 2.884-0.511v0l1.286 0.579c0.417-0.097 0.817-0.06 1.199 0.113v0c0.286 0.129 0.538 0.315 0.757 0.56 0.222 0.239 0.421 0.493 0.599 0.763 0.181 0.264 0.368 0.531 0.561 0.801 0.19 0.276 0.4 0.509 0.628 0.7v0c0.103 0.47 0.103 0.964 0.002 1.481-0.099 0.511-0.182 0.997-0.25 1.456v0c-0.5 0.542-0.928 1.143-1.283 1.802-0.355 0.659-0.74 1.294-1.154 1.904v0c-0.258 0.118-0.495 0.263-0.712 0.436-0.223 0.17-0.449 0.339-0.678 0.507-0.235 0.165-0.469 0.319-0.701 0.462-0.236 0.135-0.5 0.21-0.793 0.225v0c-0.498 0.602-1.042 1.015-1.632 1.239-0.582 0.221-1.187 0.518-1.817 0.892v0c-0.468 0.082-0.903 0.032-1.304-0.148v0c-0.334-0.151-0.597-0.364-0.787-0.64-0.193-0.27-0.343-0.578-0.449-0.926-0.098-0.351-0.143-0.704-0.137-1.06-0.002-0.352 0.024-0.687 0.08-1.006v0c0.397-0.428 0.858-0.736 1.381-0.924 0.532-0.192 1.071-0.381 1.616-0.567 0.538-0.189 1.041-0.42 1.507-0.692 0.469-0.279 0.832-0.704 1.089-1.275v0c0.022-0.049 0.036-0.097 0.044-0.145 0.01-0.054 0.026-0.105 0.047-0.154v0c0.044-0.097 0.119-0.166 0.225-0.206 0.103-0.034 0.202-0.059 0.297-0.074v0l0.291-0.088c0.103-0.034 0.176-0.1 0.221-0.197v0c0.044-0.097 0.038-0.213-0.019-0.349v0c-0.936-0.341-1.688-0.497-2.257-0.468-0.571 0.035-1.052 0.137-1.442 0.305-0.39 0.168-0.75 0.342-1.08 0.523-0.324 0.183-0.703 0.246-1.138 0.189v0c-0.154 0.164-0.327 0.28-0.519 0.348-0.188 0.076-0.384 0.145-0.587 0.207-0.2 0.071-0.392 0.164-0.575 0.278-0.186 0.121-0.345 0.294-0.475 0.521v0l-0.639-0.288c-0.193 0.169-0.423 0.314-0.689 0.436-0.275 0.125-0.544 0.241-0.805 0.35-0.261 0.109-0.509 0.246-0.744 0.411-0.232 0.173-0.385 0.401-0.461 0.681v0c-0.302-0.027-0.567 0.041-0.793 0.202-0.23 0.153-0.494 0.245-0.794 0.278v0l-0.098 0.219c-0.085 0.188-0.202 0.351-0.352 0.489-0.141 0.134-0.232 0.305-0.275 0.512v0c-0.397 0.135-0.752 0.371-1.063 0.706-0.312 0.335-0.611 0.635-0.899 0.9v0c-0.411 0.02-0.739 0.146-0.983 0.38-0.25 0.231-0.462 0.538-0.634 0.921v0c-0.517 0.191-1.027 0.462-1.529 0.814-0.499 0.345-0.974 0.717-1.423 1.113-0.449 0.397-0.89 0.816-1.323 1.258-0.424 0.438-0.843 0.834-1.259 1.188v0l-0.468 1.039c-0.504 0.226-0.936 0.569-1.297 1.029-0.364 0.45-0.767 0.817-1.208 1.1v0c-0.166 0.239-0.302 0.493-0.408 0.76-0.108 0.273-0.221 0.54-0.339 0.801v0c-0.129 0.286-0.286 0.57-0.472 0.852-0.188 0.288-0.399 0.537-0.632 0.746v0c-0.07 0.4-0.192 0.857-0.365 1.371-0.17 0.508-0.304 1.033-0.402 1.574-0.104 0.538-0.135 1.054-0.094 1.548 0.035 0.491 0.221 0.897 0.56 1.217v0c-0.138 0.567-0.083 1.07 0.164 1.511 0.242 0.438 0.564 0.85 0.968 1.236 0.4 0.378 0.819 0.746 1.257 1.104 0.447 0.355 0.811 0.724 1.092 1.106v0c0.176-0.001 0.358 0.041 0.547 0.125v0c0.188 0.085 0.351 0.187 0.487 0.307 0.133 0.111 0.286 0.235 0.458 0.371v0c0.35 0.099 0.771 0.26 1.264 0.482 0.486 0.219 0.987 0.423 1.501 0.61 0.512 0.194 1.006 0.34 1.482 0.437 0.469 0.094 0.894 0.07 1.272-0.074v0c0.17 0.077 0.264 0.177 0.281 0.302 0.011 0.122 0.101 0.221 0.272 0.298v0c0.164 0.074 0.433 0.144 0.805 0.209 0.373 0.065 0.762 0.127 1.167 0.186 0.402 0.049 0.791 0.086 1.168 0.109 0.374 0.03 0.656 0.029 0.846-0.003v0c0.056 0.054 0.12 0.098 0.193 0.131v0l0.255 0.115c0.328 0.148 0.663 0.225 1.003 0.232 0.338 0.013 0.663 0.119 0.975 0.319v0c1.341-0.054 2.665-0.024 3.974 0.09 1.309 0.114 2.616 0.279 3.923 0.494v0c0.242-0.147 0.483-0.221 0.725-0.222 0.244-0.007 0.502 0.014 0.773 0.063 0.264 0.046 0.523 0.104 0.776 0.174 0.251 0.076 0.499 0.126 0.745 0.149v0c0.179-0.007 0.344-0.042 0.497-0.105 0.156-0.054 0.332-0.081 0.529-0.08v0c0.203 0.004 0.41 0.039 0.622 0.105 0.212 0.066 0.427 0.13 0.648 0.193 0.217 0.054 0.43 0.084 0.639 0.091 0.215 0.009 0.418-0.042 0.607-0.155v0c0.271 0.29 0.542 0.599 0.812 0.925 0.273 0.32 0.458 0.689 0.555 1.106zM64.911 11.353v0c-0.042 0.229-0.176 0.402-0.401 0.516-0.219 0.122-0.336 0.223-0.35 0.302v0c-0.028 0.151-0.021 0.264 0.019 0.339 0.034 0.074 0.043 0.15 0.029 0.229v0l-0.034 0.187c-0.303 0.209-0.544 0.449-0.723 0.721-0.185 0.271-0.347 0.56-0.485 0.866-0.131 0.308-0.26 0.623-0.387 0.946-0.127 0.322-0.272 0.628-0.433 0.917v0c-0.181 0.285-0.397 0.517-0.647 0.694-0.244 0.185-0.455 0.408-0.631 0.667v0c-0.294 0.42-0.536 0.867-0.725 1.341-0.194 0.466-0.497 0.875-0.907 1.226v0l-0.034 0.187c-0.06 0.179-0.036 0.342 0.072 0.491v0c-0.61 0.552-1.137 1.245-1.582 2.078-0.445 0.833-0.845 1.715-1.199 2.646-0.361 0.93-0.693 1.865-0.995 2.807-0.309 0.94-0.622 1.777-0.94 2.511v0c0.021 0.587 0.119 1.157 0.295 1.712 0.184 0.549 0.354 1.116 0.511 1.7v0c0.487 0.225 0.946 0.496 1.375 0.813 0.436 0.318 0.709 0.754 0.817 1.309v0c-0.147 0.502-0.387 0.868-0.721 1.098-0.334 0.23-0.732 0.462-1.196 0.695v0c-0.264-0.15-0.481-0.275-0.653-0.375-0.165-0.098-0.433-0.154-0.802-0.168v0c-0.421-0.477-0.819-0.869-1.197-1.176-0.384-0.308-0.691-0.778-0.92-1.41v0c-0.039-0.082-0.108-0.132-0.206-0.149v0l-0.345-0.064c-0.074-0.332-0.168-0.688-0.281-1.068-0.12-0.381-0.234-0.775-0.342-1.182-0.115-0.408-0.201-0.806-0.257-1.196-0.062-0.398-0.065-0.751-0.009-1.059v0c0.241-1.311 0.603-2.594 1.085-3.847 0.487-1.246 0.854-2.537 1.099-3.875v0l0.071-0.384c-0.541 0.029-1.082 0.116-1.624 0.26-0.541 0.138-1.081 0.221-1.622 0.251v0c-0.187 0.02-0.305 0.093-0.356 0.219-0.049 0.12-0.147 0.207-0.292 0.261v0c-0.261-0.021-0.507-0.046-0.738-0.075-0.232-0.029-0.453-0.063-0.663-0.101v0c-0.433-0.08-0.885-0.183-1.356-0.311-0.465-0.126-0.919-0.294-1.361-0.505-0.435-0.216-0.831-0.475-1.189-0.778-0.351-0.302-0.648-0.662-0.889-1.079v0c-0.057 0.017-0.128 0.031-0.212 0.043-0.084 0.012-0.165 0.01-0.243-0.004v0c-0.072-0.013-0.145-0.04-0.219-0.081-0.074-0.041-0.135-0.079-0.182-0.115v0c-0.151-0.319-0.259-0.658-0.322-1.015v0l-0.208-1.076c-0.063-0.357-0.145-0.705-0.246-1.041-0.094-0.336-0.245-0.655-0.454-0.958v0c0.007-0.48 0.05-0.936 0.13-1.369v0c0.086-0.466 0.201-0.909 0.347-1.33 0.14-0.428 0.315-0.847 0.526-1.255v0c-0.048-0.327-0.061-0.662-0.039-1.004 0.029-0.34 0.074-0.678 0.135-1.012v0c0.071-0.387 0.18-0.777 0.327-1.17 0.155-0.399 0.356-0.755 0.604-1.068 0.241-0.315 0.543-0.558 0.907-0.728 0.364-0.17 0.775-0.213 1.233-0.129v0c0.518 0.095 0.969 0.317 1.352 0.666 0.39 0.35 0.762 0.703 1.117 1.059v0c-0.004 0.318-0.02 0.627-0.049 0.927-0.028 0.3-0.073 0.617-0.134 0.951v0c-0.113 0.616-0.261 1.233-0.443 1.851-0.175 0.619-0.321 1.249-0.439 1.891v0c-0.123 0.669-0.156 1.307-0.098 1.914 0.058 0.607 0.259 1.207 0.604 1.799v0l0.157 0.029c0.208 0.011 0.381 0.084 0.519 0.218 0.133 0.126 0.301 0.208 0.504 0.245v0c0.184 0.034 0.337-0.009 0.461-0.128 0.131-0.125 0.276-0.173 0.433-0.144v0c0.151 0.028 0.261 0.075 0.33 0.142 0.069 0.067 0.126 0.105 0.172 0.113v0c0.282 0.052 0.622 0.009 1.02-0.128 0.399-0.143 0.675-0.333 0.827-0.569v0c0.084 0.097 0.204 0.16 0.362 0.188v0c0.203 0.037 0.409 0.007 0.616-0.09 0.2-0.092 0.441-0.112 0.723-0.06v0c0.157 0.029 0.234-0.059 0.232-0.262-0.004-0.197 0.064-0.31 0.204-0.339v0c0.331-0.068 0.703-0.193 1.117-0.374 0.418-0.174 0.747-0.266 0.986-0.276v0c0.191-0.304 0.409-0.586 0.654-0.846 0.252-0.265 0.503-0.507 0.753-0.725v0c0.187-0.576 0.445-1.111 0.774-1.607 0.328-0.495 0.67-0.988 1.025-1.478 0.362-0.496 0.708-0.992 1.036-1.487 0.328-0.495 0.586-1.031 0.774-1.607v0c0.334-0.23 0.613-0.497 0.839-0.801 0.232-0.303 0.441-0.61 0.627-0.922v0c0.27-0.032 0.6-0.018 0.989 0.04 0.389 0.058 0.725 0.113 1.007 0.165v0l0.659 0.121c0.043 0.171 0.119 0.33 0.227 0.479v0l0.311 0.464c-0.295 0.312-0.475 0.648-0.542 1.009v0c-0.052 0.282-0.04 0.569 0.035 0.86 0.082 0.293 0.179 0.572 0.294 0.837zM124.688 26.188v0c-0.007 0.39-0.107 0.704-0.299 0.942-0.2 0.232-0.432 0.455-0.695 0.668v0c-0.129-0.011-0.253-0.013-0.374-0.005-0.121 0.001-0.244 0.009-0.369 0.024v0c-0.811 0.071-1.556 0.265-2.237 0.582-0.687 0.318-1.401 0.575-2.143 0.771v0c-0.252 0.084-0.488 0.133-0.708 0.146-0.22 0.013-0.446 0.06-0.678 0.142v0c-0.812 0.225-1.68 0.434-2.603 0.626-0.924 0.192-1.845 0.4-2.766 0.625-0.919 0.231-1.815 0.484-2.688 0.757-0.873 0.28-1.681 0.622-2.425 1.027v0c-0.079-0.044-0.162-0.095-0.25-0.151-0.087-0.057-0.181-0.079-0.28-0.067v0c-0.265 0.032-0.508 0.101-0.73 0.208-0.222 0.107-0.451 0.162-0.686 0.163v0c-0.246 0.184-0.515 0.327-0.804 0.43-0.29 0.102-0.581 0.191-0.874 0.266-0.293 0.076-0.577 0.17-0.853 0.284-0.276 0.107-0.53 0.282-0.762 0.525v0c-0.218-0.081-0.477-0.11-0.776-0.088-0.299 0.023-0.513-0.049-0.641-0.215v0c-0.561 0.356-1.169 0.611-1.822 0.763-0.652 0.159-1.318 0.266-1.996 0.321v0c-0.44 0.026-0.951 0.024-1.531-0.007-0.589-0.037-1.179-0.117-1.772-0.24-0.593-0.13-1.151-0.301-1.673-0.514-0.529-0.212-0.946-0.497-1.251-0.856v0c-0.21-0.237-0.373-0.506-0.49-0.807-0.117-0.302-0.327-0.511-0.63-0.63v0c0.008-0.605 0.03-1.202 0.066-1.79 0.031-0.581 0.063-1.176 0.098-1.785v0c0.464-0.499 0.901-1.025 1.311-1.578 0.404-0.546 0.782-1.115 1.134-1.708v0c0.461-0.297 0.886-0.641 1.276-1.029 0.39-0.383 0.776-0.775 1.157-1.177 0.388-0.403 0.773-0.798 1.157-1.187 0.39-0.389 0.814-0.743 1.272-1.06v0c0.057-0.195 0.152-0.357 0.284-0.487 0.125-0.136 0.26-0.27 0.405-0.401 0.138-0.137 0.264-0.287 0.379-0.449 0.109-0.154 0.177-0.34 0.205-0.558v0c0.841-0.652 1.55-1.432 2.125-2.341 0.576-0.909 0.903-1.895 0.984-2.959v0c-0.481-0.311-1.009-0.49-1.586-0.534-0.57-0.052-1.157-0.069-1.758-0.05v0c-0.519 0.036-1.056 0.1-1.609 0.193-0.553 0.093-1.12 0.148-1.702 0.165v0c-0.547 0.254-1.122 0.441-1.726 0.56-0.603 0.126-1.199 0.245-1.79 0.357-0.591 0.111-1.17 0.262-1.738 0.451-0.569 0.183-1.106 0.462-1.612 0.838v0c-0.106 0.013-0.207 0.011-0.302-0.004-0.096-0.015-0.193-0.017-0.293-0.005v0c-0.837 0.074-1.595 0.33-2.275 0.768-0.686 0.438-1.359 0.869-2.02 1.29v0c-0.034 0.111-0.047 0.194-0.041 0.247v0c0.018 0.152 0.066 0.298 0.144 0.436 0.083 0.131 0.134 0.276 0.153 0.435v0c-0.023 0.03-0.033 0.058-0.031 0.084 0.002 0.02-0.008 0.045-0.031 0.074v0c-0.011 0.136-0.026 0.258-0.046 0.369-0.028 0.104-0.06 0.225-0.097 0.364v0c-0.185 0.862-0.242 1.698-0.172 2.508v0c0.054 0.672 0.133 1.33 0.238 1.976 0.105 0.645 0.184 1.307 0.239 1.986v0c0.047 0.834 0.011 1.627-0.106 2.379v0c0.201 0.607 0.395 1.248 0.584 1.924 0.189 0.676 0.4 1.339 0.632 1.989 0.24 0.656 0.508 1.289 0.803 1.898 0.295 0.609 0.659 1.176 1.091 1.702v0c-0.02 0.056-0.002 0.094 0.054 0.114 0.056 0.02 0.111 0.027 0.164 0.02v0l0.307-0.037c0.132-0.016 0.192 0.031 0.178 0.14v0c0.055 0.067 0.1 0.132 0.135 0.195 0.034 0.063 0.095 0.116 0.18 0.16v0c0.062 0.066 0.074 0.169 0.037 0.308v0c0.036 0.519-0.036 1.015-0.214 1.486-0.179 0.465-0.264 0.962-0.253 1.491v0c-0.302 0.117-0.581 0.191-0.84 0.222v0c-0.447 0.027-0.852-0.052-1.217-0.236-0.364-0.178-0.707-0.405-1.029-0.682-0.322-0.277-0.632-0.562-0.929-0.855-0.297-0.293-0.615-0.537-0.954-0.731v0c-0.273-0.706-0.545-1.489-0.816-2.35-0.278-0.86-0.646-1.577-1.106-2.153v0c0.071-0.244 0.087-0.534 0.046-0.872v0c-0.036-0.519-0.14-1.027-0.314-1.523-0.18-0.489-0.275-0.998-0.285-1.527v0c-0.034-0.285-0.035-0.573-0.003-0.866 0.025-0.292 0.034-0.582 0.026-0.869v0c-0.026-0.44-0.121-0.862-0.283-1.265-0.169-0.403-0.267-0.824-0.293-1.264v0c0.001-0.215 0.023-0.422 0.066-0.623 0.036-0.199 0.111-0.386 0.224-0.561v0c-0.17-0.295-0.245-0.588-0.226-0.879v0c-0.027-0.447-0.024-0.867 0.009-1.26 0.032-0.4 0.038-0.797 0.018-1.191v0c-0.025-0.205-0.062-0.402-0.111-0.591-0.05-0.195-0.113-0.379-0.188-0.551v0l-0.361-0.077c-0.159 0.019-0.303 0.077-0.433 0.172-0.136 0.097-0.251 0.201-0.345 0.314-0.087 0.118-0.166 0.215-0.237 0.29-0.072 0.069-0.145 0.108-0.217 0.117v0c-0.053 0.006-0.113 0.007-0.182 0.002-0.067 0.001-0.127 0.005-0.179 0.011v0c-0.053 0.006-0.143 0.068-0.27 0.184-0.133 0.123-0.288 0.253-0.467 0.389-0.178 0.142-0.352 0.284-0.523 0.425-0.165 0.134-0.299 0.221-0.402 0.26v0c-0.291-0.019-0.528-0.088-0.71-0.207-0.19-0.125-0.362-0.248-0.518-0.37-0.163-0.128-0.328-0.239-0.493-0.334-0.173-0.1-0.374-0.123-0.603-0.068v0c-0.099-0.149-0.165-0.312-0.2-0.49-0.035-0.177-0.05-0.36-0.046-0.548v0l-0.074-0.616c0.145-0.36 0.352-0.67 0.623-0.931 0.272-0.254 0.564-0.477 0.877-0.67v0l0.956-0.588c0.318-0.199 0.606-0.432 0.863-0.698v0l0.357-0.043c0.467-0.029 0.862-0.171 1.188-0.425 0.326-0.247 0.628-0.526 0.907-0.835 0.278-0.309 0.563-0.625 0.853-0.948 0.29-0.324 0.617-0.588 0.982-0.793v0c0.301 0.098 0.612 0.171 0.933 0.22 0.322 0.055 0.654 0.076 0.994 0.061v0c0.338-0.041 0.682-0.136 1.034-0.285 0.352-0.143 0.614-0.369 0.784-0.679v0c0.139 0.037 0.255 0.053 0.348 0.049 0.088 0.003 0.198-0.004 0.33-0.02v0c0.394-0.021 0.774-0.123 1.142-0.308 0.373-0.193 0.729-0.413 1.068-0.663v0c0.519-0.036 1.028-0.131 1.527-0.284 0.492-0.153 0.983-0.31 1.475-0.47 0.497-0.167 0.991-0.328 1.483-0.481 0.493-0.147 1.002-0.238 1.528-0.274v0c0.857-0.076 1.688-0.257 2.493-0.542 0.812-0.279 1.649-0.444 2.509-0.494v0c0.598-0.052 1.192-0.08 1.783-0.083 0.59-0.004 1.182-0.055 1.774-0.154v0c0.357 0.118 0.677 0.217 0.963 0.298 0.286 0.086 0.634 0.078 1.044-0.025v0c0.912 0.602 1.761 1.329 2.549 2.181v0l0.079 0.655c0.045 0.599 0.013 1.197-0.096 1.794-0.117 0.592-0.264 1.18-0.442 1.766-0.178 0.585-0.377 1.16-0.599 1.724-0.22 0.57-0.428 1.129-0.624 1.676v0c-1.504 1.732-3.006 3.451-4.506 5.156-1.507 1.706-3.069 3.368-4.687 4.986v0c-0.022 0.265-0.067 0.505-0.135 0.721-0.061 0.222-0.09 0.451-0.089 0.685v0c0.015 0.126 0.041 0.227 0.077 0.303v0c0.185 0.031 0.359 0.111 0.522 0.24 0.156 0.122 0.221 0.302 0.196 0.54v0l0.348-0.042c0.132-0.016 0.205 0.029 0.217 0.135v0l0.631-0.035c0.993-0.066 1.972-0.211 2.939-0.435 0.973-0.225 1.952-0.46 2.936-0.706 0.984-0.253 1.958-0.494 2.925-0.724 0.972-0.238 1.949-0.429 2.932-0.575v0c0.222-0.107 0.463-0.2 0.722-0.278 0.252-0.084 0.471-0.218 0.657-0.402v0l0.119-0.014c0.179-0.022 0.321 0.015 0.426 0.11 0.105 0.095 0.249 0.141 0.43 0.139v0c0.132-0.016 0.265-0.055 0.399-0.118 0.139-0.07 0.283-0.128 0.432-0.173v0c0.351-0.15 0.727-0.262 1.128-0.337 0.394-0.074 0.783-0.158 1.168-0.252v0c1.487-0.313 2.965-0.579 4.437-0.796 1.478-0.218 2.934-0.585 4.37-1.1v0c0.148 0.17 0.345 0.271 0.59 0.302 0.24 0.038 0.492 0.075 0.758 0.11 0.266 0.035 0.516 0.079 0.751 0.131 0.227 0.047 0.395 0.184 0.503 0.413zM133.789 25.16v0c-0.065 0.243-0.159 0.471-0.283 0.683-0.128 0.22-0.239 0.439-0.332 0.656v0c-0.155 0.131-0.338 0.229-0.549 0.293-0.21 0.064-0.41 0.118-0.598 0.162-0.195 0.046-0.37 0.099-0.526 0.161-0.162 0.063-0.275 0.161-0.34 0.292v0c-0.22 0.011-0.399-0.038-0.537-0.149-0.143-0.103-0.343-0.129-0.599-0.078v0c-0.11 0.006-0.212 0.037-0.306 0.093v0c-0.5-0.314-0.979-0.659-1.436-1.035-0.459-0.383-0.889-0.742-1.292-1.079v0c-0.308-0.917-0.672-1.83-1.09-2.741v0c-0.094-0.215-0.2-0.427-0.319-0.634-0.115-0.216-0.215-0.419-0.301-0.609v0c-0.076-0.249-0.131-0.497-0.165-0.744-0.042-0.252-0.081-0.481-0.116-0.686v0c-0.118-0.752-0.221-1.498-0.308-2.238-0.093-0.738-0.199-1.483-0.318-2.235v0c-0.097-0.681-0.255-1.379-0.473-2.093-0.216-0.708-0.535-1.339-0.956-1.893v0l-0.096-0.18c-0.009-0.213-0.004-0.4 0.017-0.559 0.023-0.153 0.02-0.323-0.01-0.51v0c-0.033-0.29-0.157-0.468-0.373-0.534v0c0.014-0.227 0.098-0.396 0.253-0.506 0.159-0.118 0.217-0.293 0.175-0.524v0c-0.006-0.11-0.037-0.212-0.094-0.306v0c0.174-0.137 0.358-0.266 0.551-0.388 0.197-0.13 0.402-0.2 0.615-0.21v0c0.341-0.048 0.66-0.031 0.958 0.053 0.297 0.083 0.589 0.193 0.874 0.328v0c0.768 1.076 1.318 2.291 1.649 3.647 0.333 1.362 0.619 2.742 0.859 4.14 0.241 1.404 0.533 2.755 0.873 4.052 0.343 1.303 0.905 2.435 1.688 3.395v0l0.088 0.015c0.135-0.014 0.225-0.086 0.268-0.218 0.035-0.136 0.12-0.211 0.255-0.225v0c0.118 0.02 0.189 0.026 0.215 0.018v0c0.248 0.468 0.552 0.894 0.914 1.279 0.366 0.376 0.754 0.745 1.165 1.107zM165.297 4.924v0c0.135 0.253 0.144 0.49 0.027 0.711-0.113 0.227-0.115 0.443-0.005 0.648v0c0.05 0.094 0.155 0.185 0.315 0.274v0c-0.324 0.172-0.486 0.391-0.488 0.657-0.005 0.275 0.004 0.568 0.027 0.881v0l-0.45 0.24c-0.118 0.063-0.199 0.136-0.244 0.221-0.043 0.076-0.072 0.17-0.087 0.284-0.015 0.114-0.027 0.275-0.037 0.484v0c-0.385 0.326-0.729 0.695-1.031 1.105-0.297 0.407-0.576 0.825-0.84 1.252-0.261 0.418-0.53 0.841-0.808 1.269-0.272 0.425-0.58 0.819-0.922 1.183v0c-0.024 0.451-0.177 0.887-0.458 1.309v0l-0.106 0.057c-0.099 0.083-0.206 0.117-0.319 0.102-0.114-0.015-0.226 0.007-0.338 0.067v0c-0.071 0.038-0.111 0.074-0.123 0.11v0c-0.444 0.826-1.092 1.466-1.945 1.921v0c-0.229 0.122-0.459 0.222-0.69 0.3-0.222 0.08-0.447 0.182-0.677 0.304v0c-0.071 0.038-0.107 0.083-0.108 0.137v0l0.014 0.174c0.002 0.06-0.003 0.122-0.013 0.188-0.01 0.066-0.086 0.136-0.228 0.212v0c-0.253 0.135-0.525 0.234-0.815 0.299-0.291 0.064-0.562 0.194-0.813 0.388v0c-0.689-0.018-1.258-0.085-1.705-0.202-0.447-0.117-0.945-0.384-1.493-0.802v0c-0.247-0.193-0.531-0.352-0.853-0.474-0.316-0.126-0.595-0.302-0.837-0.529v0c-0.074-0.082-0.195-0.232-0.365-0.451-0.176-0.216-0.361-0.45-0.556-0.702-0.194-0.251-0.377-0.494-0.546-0.728-0.17-0.234-0.28-0.398-0.331-0.492v0c-0.147-0.277-0.274-0.557-0.38-0.84-0.106-0.284-0.209-0.576-0.309-0.878v0c-0.332-0.949-0.705-1.883-1.12-2.803-0.415-0.92-0.681-1.881-0.8-2.882v0c-0.182-0.228-0.334-0.457-0.456-0.686v0l-0.404-0.759c-0.232-0.435-0.487-0.772-0.765-1.009v0c0.028-0.4-0.056-0.786-0.254-1.157v0c-0.22-0.412-0.522-0.561-0.906-0.446v0l-0.056-0.106c-0.257-0.482-0.621-0.776-1.093-0.88v0c-0.43-0.806-0.55-1.52-0.36-2.142 0.187-0.613 0.536-1.249 1.047-1.906v0c0.019-0.191-0.007-0.325-0.078-0.401v0c0.184-0.038 0.357-0.073 0.521-0.107 0.16-0.025 0.311-0.075 0.452-0.151v0c0.229-0.122 0.418-0.264 0.566-0.426v0c0.218 0.239 0.485 0.308 0.802 0.207 0.32-0.095 0.596-0.144 0.828-0.147v0l0.24 0.45c0.379 0.712 0.915 1.299 1.607 1.761v0c0.003 0.233 0.048 0.458 0.134 0.677 0.089 0.224 0.183 0.428 0.28 0.61v0c0.147 0.277 0.307 0.547 0.478 0.811 0.171 0.264 0.324 0.522 0.458 0.775v0c0.147 0.277 0.265 0.569 0.354 0.877 0.089 0.308 0.085 0.62-0.011 0.935v0c0.136 0.313 0.301 0.663 0.492 1.052 0.189 0.383 0.374 0.779 0.555 1.189 0.172 0.407 0.309 0.821 0.412 1.242 0.103 0.421 0.125 0.795 0.065 1.121v0c0.161 0.36 0.33 0.719 0.507 1.078 0.18 0.365 0.355 0.71 0.528 1.033v0c0.27 0.506 0.619 1.09 1.048 1.753 0.426 0.657 0.887 1.147 1.385 1.472v0c0.212 0.129 0.509 0.148 0.892 0.057 0.386-0.085 0.681-0.182 0.887-0.291v0c0.253-0.135 0.49-0.314 0.71-0.538 0.224-0.218 0.338-0.464 0.344-0.738v0c0.148-0.049 0.277-0.027 0.386 0.066 0.107 0.087 0.238 0.134 0.393 0.142v0c1.017-1.252 2.047-2.481 3.089-3.686 1.042-1.205 2.02-2.482 2.933-3.83v0c0.233-0.003 0.452-0.059 0.658-0.169v0c0.229-0.122 0.449-0.27 0.66-0.443 0.204-0.169 0.421-0.315 0.65-0.437v0l0.239-0.127c0.122 0.116 0.202 0.209 0.24 0.28z" opacity="1" transform="matrix(1,0,0,1,0,0)" fill="#000000" class="undefined-text-0" data-fill-palette-color="primary" id="text-0"></path></svg></g></svg></g></svg></g></svg></g><g></g></svg></g></svg><rect width="395.5199999999999" height="120.15474452067411" fill="none" stroke="none" visibility="hidden"></rect></g></svg></g></svg>